<svg width="24" height="25" viewBox="0 0 24 25" fill="none" xmlns="http://www.w3.org/2000/svg">
<g clip-path="url(#clip0_53_2226)">
<path fill-rule="evenodd" clip-rule="evenodd" d="M0 0.163574H24V24.1636H0V0.163574ZM19 9.16357V15.2382C19 15.7293 18.7954 16.2019 18.4279 16.5592C18.0604 16.9165 17.5579 17.1316 17.0232 17.1604L16.9 17.1636H7.1C6.56435 17.1636 6.04894 16.976 5.65922 16.639C5.2695 16.3021 5.03492 15.8414 5.0035 15.3511L5 15.2382V9.16357L11.6115 13.205L11.6927 13.2473C11.7884 13.2902 11.8935 13.3125 12 13.3125C12.1065 13.3125 12.2116 13.2902 12.3073 13.2473L12.3885 13.205L19 9.16357ZM19 8.07867C18.6132 7.5291 17.9194 7.16357 17.1282 7.16357H6.87179L6.72454 7.16806C6.37497 7.18849 6.03605 7.2818 5.73605 7.44021C5.43605 7.59861 5.18368 7.81752 5 8.07867L12 12.1636L19 8.07867Z" fill="#6C7275"/>
</g>
<defs>
<clipPath id="clip0_53_2226">
<rect y="0.163574" width="24" height="24" rx="12" fill="white"/>
</clipPath>
</defs>
</svg>
