<svg width="24" height="25" viewBox="0 0 24 25" fill="none" xmlns="http://www.w3.org/2000/svg">
<g clip-path="url(#clip0_53_2225)">
<path d="M12 0.163574C18.6343 0.163574 24 5.52929 24 12.1636C24 18.7979 18.6343 24.1636 12 24.1636C5.36571 24.1636 0 18.7979 0 12.1636C0 5.52929 5.36571 0.163574 12 0.163574ZM9.80571 18.4893C15.12 18.4893 18.0343 14.0836 18.0343 10.2607V9.88357C18.6 9.47215 19.0971 8.95786 19.4743 8.375C18.96 8.59786 18.3943 8.75215 17.8114 8.83786C18.4114 8.47786 18.8743 7.91215 19.08 7.24357C18.5143 7.56929 17.8971 7.80929 17.2457 7.94643C16.7143 7.38072 15.96 7.03786 15.1371 7.03786C13.5429 7.03786 12.24 8.34072 12.24 9.935C12.24 10.1579 12.2571 10.3807 12.3257 10.5864C9.92571 10.4664 7.78286 9.31786 6.36 7.56929C6.12 7.99786 5.96571 8.495 5.96571 9.02643C5.96571 10.0207 6.48 10.9121 7.25143 11.4264C6.77143 11.4264 6.32571 11.2893 5.94857 11.0664V11.1007C5.94857 12.5064 6.94286 13.6721 8.26286 13.9464C8.02286 14.015 7.76571 14.0493 7.50857 14.0493C7.32 14.0493 7.14857 14.0321 6.96 13.9979C7.32 15.1464 8.4 15.9864 9.65143 16.0036C8.65714 16.775 7.40571 17.2379 6.05143 17.2379C5.81143 17.2379 5.58857 17.2379 5.36571 17.2036C6.63429 18.0264 8.16 18.5064 9.78857 18.5064" fill="#6C7275"/>
</g>
<defs>
<clipPath id="clip0_53_2225">
<rect width="24" height="24" fill="white" transform="translate(0 0.163574)"/>
</clipPath>
</defs>
</svg>
