<svg width="24" height="25" viewBox="0 0 24 25" fill="none" xmlns="http://www.w3.org/2000/svg">
<g clip-path="url(#clip0_53_2228)">
<path d="M12 0.643555C5.63758 0.643555 0.47998 5.80116 0.47998 12.1636C0.47998 18.526 5.63758 23.6836 12 23.6836C18.3624 23.6836 23.52 18.526 23.52 12.1636C23.52 5.80116 18.3624 0.643555 12 0.643555ZM17.2812 9.94355C16.6716 13.4428 13.2636 16.408 12.24 17.0848C11.2152 17.7592 10.2792 16.8124 9.94078 16.096C9.55198 15.2776 8.38918 10.8484 8.08438 10.48C7.77958 10.1128 6.86518 10.8484 6.86518 10.8484L6.42238 10.2556C6.42238 10.2556 8.27878 7.99595 9.69118 7.71516C11.1888 7.41515 11.1864 10.0564 11.5464 11.524C11.8956 12.9436 12.1296 13.7548 12.4332 13.7548C12.738 13.7548 13.32 12.9652 13.956 11.7508C14.5944 10.5364 13.9296 9.46355 12.6828 10.2268C13.1808 7.17875 17.8908 6.44435 17.2812 9.94355Z" fill="#6C7275"/>
</g>
<defs>
<clipPath id="clip0_53_2228">
<rect width="24" height="24" fill="white" transform="translate(0 0.163574)"/>
</clipPath>
</defs>
</svg>
