<svg width="24" height="25" viewBox="0 0 24 25" fill="none" xmlns="http://www.w3.org/2000/svg">
<g clip-path="url(#clip0_53_2227)">
<path fill-rule="evenodd" clip-rule="evenodd" d="M24 0.163574H0V24.1636H24V0.163574ZM14.233 12.1636L10.6 14.3064V10.0207L14.233 12.1636ZM18.888 10.0707C18.846 9.49929 18.783 9.04929 18.692 8.71357C18.517 8.07072 18.111 7.65643 17.481 7.47786C16.76 7.27786 14.933 7.16357 12 7.16357L10.887 7.20643C10.117 7.20643 9.284 7.22786 8.374 7.27786C7.45 7.32072 6.848 7.385 6.519 7.47786C5.889 7.65643 5.483 8.07072 5.308 8.71357C5.112 9.44929 5 10.5993 5 12.1636L5.042 12.7636C5.042 13.1921 5.063 13.685 5.112 14.2564C5.154 14.8279 5.217 15.2779 5.308 15.6136C5.483 16.2564 5.889 16.6707 6.519 16.8493C7.24 17.0493 9.067 17.1636 12 17.1636L13.113 17.1207C13.883 17.1207 14.716 17.0993 15.626 17.0493C16.55 17.0064 17.152 16.9421 17.481 16.8493C18.111 16.6707 18.517 16.2564 18.692 15.6136C18.888 14.8779 19 13.7279 19 12.1636L18.958 11.5636C18.958 11.135 18.937 10.6421 18.888 10.0707Z" fill="#6C7275"/>
</g>
<defs>
<clipPath id="clip0_53_2227">
<rect y="0.163574" width="24" height="24" rx="12" fill="white"/>
</clipPath>
</defs>
</svg>
